<svg xmlns="http://www.w3.org/2000/svg" width="622" height="905" viewBox="0 0 622 905">
<path d="M 407 545 L 408 551 L 485 645 L 496 714 L 482 761 L 433 893 L 437 898 L 462 898 L 465 896 L 518 788 L 551 714 L 541 631 L 535 598 L 467 567 L 454 564 L 455 572 L 503 614 L 524 729 L 506 781 L 491 788 L 490 784 L 502 776 L 518 731 L 498 616 L 450 574 L 448 560 Z" fill="#11131A"/>
<path d="M 216 545 L 176 560 L 174 574 L 126 617 L 106 731 L 124 779 L 135 784 L 134 788 L 118 781 L 100 729 L 121 614 L 169 572 L 170 563 L 89 598 L 79 654 L 71 713 L 155 895 L 159 898 L 186 898 L 189 893 L 135 744 L 128 719 L 128 708 L 139 645 L 217 548 Z" fill="#11131A"/>
<path d="M 457 530 L 457 532 L 542 540 L 532 522 L 464 522 Z" fill="#11131A"/>
<path d="M 81 539 L 93 540 L 167 531 L 159 522 L 92 522 Z" fill="#11131A"/>
<path d="M 612 400 L 598 400 L 524 481 L 403 525 L 405 527 L 450 531 L 462 517 L 535 517 L 548 539 L 558 540 L 561 537 L 615 406 Z" fill="#11131A"/>
<path d="M 6 403 L 27 458 L 62 539 L 75 540 L 89 517 L 162 517 L 174 531 L 219 526 L 185 511 L 100 480 L 26 400 L 9 400 Z" fill="#11131A"/>
<path d="M 213 393 L 272 531 L 225 725 L 247 780 L 299 895 L 304 898 L 320 898 L 324 895 L 397 726 L 352 529 L 410 393 L 315 461 Z" fill="#11131A"/>
<path d="M 441 259 L 435 262 L 386 310 L 382 353 L 314 423 L 242 352 L 238 310 L 185 259 L 206 371 L 314 446 L 418 371 Z" fill="#11131A"/>
<path d="M 312 164 L 271 271 L 262 353 L 313 407 L 362 354 L 353 269 Z" fill="#11131A"/>
<path d="M 477 124 L 497 200 L 511 278 L 466 345 L 425 413 L 382 506 L 382 511 L 402 497 L 467 440 L 469 368 L 526 293 L 485 127 Z" fill="#11131A"/>
<path d="M 147 124 L 138 129 L 99 293 L 156 369 L 157 439 L 242 511 L 243 507 L 229 473 L 196 406 L 158 343 L 114 278 L 125 211 L 148 127 Z" fill="#11131A"/>
<path d="M 415 6 L 413 8 L 414 13 L 452 69 L 474 117 L 490 124 L 532 293 L 474 371 L 473 434 L 511 396 L 533 370 L 575 307 L 575 302 L 553 222 L 509 86 L 473 47 L 431 7 Z" fill="#11131A"/>
<path d="M 213 6 L 199 6 L 117 87 L 69 230 L 49 305 L 71 340 L 99 378 L 151 433 L 151 371 L 94 296 L 93 291 L 134 125 L 151 117 L 171 73 L 192 40 L 215 8 Z" fill="#11131A"/>
</svg>