<svg xmlns="http://www.w3.org/2000/svg" width="622" height="905" viewBox="0 0 622 905">
<path d="M 218 547 L 178 561 L 175 576 L 127 618 L 107 732 L 124 779 L 135 783 L 135 789 L 119 782 L 101 729 L 122 615 L 170 573 L 171 564 L 120 585 L 90 600 L 72 709 L 74 719 L 157 897 L 161 899 L 186 899 L 189 897 L 189 892 L 143 766 L 128 714 L 140 646 L 199 574 Z" fill="#11131A"/>
<path d="M 404 547 L 444 561 L 447 576 L 495 618 L 515 732 L 498 779 L 487 783 L 487 789 L 503 782 L 521 729 L 500 615 L 452 573 L 451 564 L 502 585 L 532 600 L 550 709 L 548 719 L 465 897 L 461 899 L 436 899 L 433 897 L 433 892 L 479 766 L 494 714 L 482 646 L 423 574 Z" fill="#11131A"/>
<path d="M 539 541 L 454 532 L 462 523 L 529 523 Z" fill="#11131A"/>
<path d="M 83 541 L 168 532 L 160 523 L 93 523 Z" fill="#11131A"/>
<path d="M 614 403 L 614 410 L 559 540 L 547 541 L 532 518 L 459 518 L 447 532 L 402 527 L 439 511 L 521 481 L 595 401 L 612 401 Z" fill="#11131A"/>
<path d="M 8 403 L 8 410 L 63 540 L 75 541 L 90 518 L 163 518 L 175 532 L 220 527 L 183 511 L 101 481 L 27 401 L 10 401 Z" fill="#11131A"/>
<path d="M 215 395 L 273 532 L 228 716 L 227 730 L 300 896 L 305 899 L 320 899 L 325 896 L 398 726 L 353 530 L 411 395 L 316 462 L 242 411 Z" fill="#11131A"/>
<path d="M 476 126 L 483 130 L 522 294 L 465 370 L 463 441 L 379 512 L 378 509 L 389 481 L 424 409 L 465 341 L 507 279 L 493 198 L 473 127 Z" fill="#11131A"/>
<path d="M 146 126 L 139 130 L 100 294 L 157 370 L 159 441 L 243 512 L 244 509 L 233 481 L 198 409 L 157 341 L 115 279 L 129 198 L 149 127 Z" fill="#11131A"/>
<path d="M 408 7 L 423 8 L 504 88 L 550 225 L 571 302 L 571 308 L 532 366 L 500 404 L 470 434 L 471 371 L 528 296 L 488 128 L 485 124 L 471 119 L 453 79 L 427 38 L 406 9 Z" fill="#11131A"/>
<path d="M 214 7 L 199 8 L 118 88 L 72 225 L 51 302 L 51 308 L 90 366 L 122 404 L 152 434 L 151 371 L 94 296 L 134 128 L 137 124 L 151 119 L 169 79 L 195 38 L 216 9 Z" fill="#11131A"/>
<path d="M 186 260 L 207 372 L 314 447 L 419 372 L 441 260 L 387 311 L 383 354 L 314 425 L 243 353 L 239 311 Z" fill="#991B1B"/>
<path d="M 313 166 L 272 273 L 263 354 L 315 407 L 363 355 L 353 267 Z" fill="#991B1B"/>
</svg>