<?xml version="1.0" encoding="UTF-8" standalone="no"?>
<svg xmlns="http://www.w3.org/2000/svg" width="609" height="913" viewBox="0 0 609 913">
<path d="M 399 541 L 406 552 L 479 639 L 488 696 L 488 714 L 479 751 L 448 843 L 424 904 L 425 911 L 429 912 L 455 894 L 533 734 L 541 706 L 541 691 L 534 635 L 526 594 L 462 564 L 417 546 Z" fill="#11131A"/>
<path d="M 212 541 L 139 569 L 86 594 L 71 697 L 74 717 L 79 732 L 158 895 L 183 912 L 186 912 L 189 906 L 137 761 L 127 725 L 124 700 L 134 639 L 207 550 Z" fill="#11131A"/>
<path d="M 608 399 L 607 398 L 521 476 L 495 484 L 450 501 L 447 501 L 417 513 L 406 516 L 399 519 L 399 520 L 455 526 L 464 528 L 472 528 L 473 529 L 481 529 L 482 530 L 490 530 L 491 531 L 499 531 L 508 533 L 525 534 L 534 536 L 546 535 L 583 458 L 608 402 Z" fill="#11131A"/>
<path d="M 0 393 L 28 456 L 60 522 L 68 536 L 77 536 L 118 530 L 127 530 L 161 525 L 214 520 L 212 518 L 185 509 L 174 504 L 93 476 Z" fill="#11131A"/>
<path d="M 208 389 L 266 524 L 221 722 L 296 889 L 309 893 L 315 891 L 391 720 L 346 525 L 404 390 L 307 457 Z" fill="#11131A"/>
<path d="M 180 257 L 203 368 L 306 442 L 310 441 L 412 366 L 434 257 L 380 309 L 376 350 L 307 419 L 237 349 L 233 308 Z" fill="#11131A"/>
<path d="M 306 162 L 283 226 L 266 268 L 262 308 L 257 341 L 257 351 L 293 390 L 307 403 L 356 351 L 356 341 L 355 340 L 352 305 L 349 288 L 348 270 L 307 162 Z" fill="#11131A"/>
<path d="M 400 0 L 398 3 L 422 32 L 447 70 L 467 112 L 490 193 L 504 276 L 454 349 L 420 405 L 388 469 L 375 508 L 458 436 L 498 396 L 541 344 L 567 302 L 542 206 L 498 88 L 444 32 Z" fill="#11131A"/>
<path d="M 214 0 L 165 37 L 117 88 L 75 198 L 50 284 L 47 304 L 83 358 L 121 402 L 180 458 L 238 507 L 238 501 L 224 466 L 190 399 L 110 275 L 125 185 L 148 109 L 174 58 L 215 4 Z" fill="#11131A"/>

</svg>
