<?xml version="1.0" encoding="UTF-8" standalone="no"?>
<svg xmlns="http://www.w3.org/2000/svg" width="1914" height="822" viewBox="0 0 1914 822">
<g fill="#161923" fill-rule="evenodd" stroke="none">
  <path d="M 165 497 L 166 498 L 207 498 L 212 496 L 215 493 L 221 482 L 224 479 L 230 468 L 233 465 L 239 454 L 246 445 L 262 418 L 274 400 L 274 398 L 283 386 L 290 373 L 294 368 L 294 366 L 300 359 L 307 368 L 307 370 L 325 396 L 329 404 L 388 495 L 393 498 L 435 498 L 435 496 L 428 485 L 423 479 L 388 424 L 378 411 L 341 352 L 339 351 L 339 349 L 327 332 L 321 321 L 315 315 L 311 314 L 287 314 L 284 315 L 280 319 L 272 333 L 263 345 L 260 352 L 258 353 L 258 355 L 250 368 L 243 377 L 239 385 L 224 406 L 218 417 L 205 435 L 195 452 Z"/>
  <path d="M 296 427 L 290 430 L 286 434 L 283 440 L 282 448 L 284 454 L 290 461 L 296 464 L 306 464 L 314 460 L 320 451 L 320 440 L 318 435 L 313 430 L 307 427 Z"/>
  <path d="M 505 316 L 504 318 L 504 495 L 505 497 L 507 498 L 539 498 L 542 494 L 542 362 L 543 361 L 586 399 L 612 420 L 679 478 L 691 487 L 698 494 L 705 498 L 740 498 L 742 497 L 743 495 L 743 317 L 739 314 L 709 314 L 706 317 L 706 449 L 705 450 L 699 446 L 634 389 L 603 364 L 550 318 L 543 314 L 509 314 Z"/>
  <path d="M 814 496 L 815 498 L 856 498 L 859 497 L 866 489 L 890 450 L 903 432 L 945 363 L 948 360 L 950 360 L 991 423 L 995 431 L 1000 437 L 1005 447 L 1033 488 L 1036 495 L 1042 498 L 1083 498 L 1083 495 L 1062 464 L 1047 439 L 1040 430 L 1023 402 L 1012 387 L 968 317 L 963 314 L 935 314 L 928 320 L 894 375 L 881 393 L 851 441 L 844 450 L 838 461 Z"/>
  <path d="M 950 426 L 949 427 L 944 427 L 938 430 L 932 437 L 931 440 L 932 454 L 941 463 L 954 464 L 960 462 L 968 452 L 969 441 L 966 435 L 960 429 Z"/>
  <path d="M 1154 315 L 1152 318 L 1152 495 L 1155 498 L 1186 498 L 1188 497 L 1190 493 L 1189 492 L 1189 484 L 1190 483 L 1190 362 L 1191 361 L 1351 497 L 1355 498 L 1389 498 L 1392 495 L 1392 317 L 1388 314 L 1358 314 L 1354 319 L 1354 449 L 1353 450 L 1199 319 L 1190 314 L 1156 314 Z"/>
  <path d="M 1469 331 L 1463 341 L 1462 348 L 1460 351 L 1460 391 L 1464 403 L 1468 409 L 1477 417 L 1483 420 L 1494 423 L 1644 423 L 1647 424 L 1651 428 L 1652 431 L 1652 456 L 1646 463 L 1643 464 L 1493 464 L 1485 468 L 1478 478 L 1463 496 L 1465 498 L 1650 498 L 1661 495 L 1673 488 L 1682 478 L 1686 471 L 1689 462 L 1689 418 L 1687 415 L 1686 409 L 1682 402 L 1670 392 L 1655 388 L 1504 388 L 1499 384 L 1497 380 L 1497 357 L 1498 353 L 1502 349 L 1507 347 L 1658 347 L 1665 343 L 1686 317 L 1686 315 L 1684 314 L 1502 314 L 1501 315 L 1495 315 L 1482 320 L 1476 324 Z"/>
  <path d="M 1760 314 L 1755 318 L 1755 495 L 1758 498 L 1790 498 L 1794 494 L 1794 318 L 1790 314 Z"/>
</g>
</svg>