<svg width="512" height="640" viewBox="0 0 512 640" fill="none" xmlns="http://www.w3.org/2000/svg">

  <!-- Background (remove if not needed) -->
  <rect width="512" height="640" fill="#F5F5F5"/>

  <!-- HALO ARC (refined) -->
  <path d="M176 150 A160 160 0 0 1 336 150"
        stroke="#E50914"
        stroke-width="8"
        fill="none"
        stroke-linecap="round"/>

  <!-- MAIN BODY (A structure) -->
  <path d="M256 200 L230 320 L256 380 L282 320 Z"
        fill="#0B0F12"/>

  <!-- INNER A LEGS (refined tighter geometry) -->
  <path d="M256 200 L210 360"
        stroke="#0B0F12"
        stroke-width="14"
        stroke-linecap="butt"/>

  <path d="M256 200 L302 360"
        stroke="#0B0F12"
        stroke-width="14"
        stroke-linecap="butt"/>

  <!-- UPPER LEGS (symmetrical + consistent angles) -->
  <path d="M180 210 L130 140 L140 90"
        stroke="#0B0F12"
        stroke-width="18"
        fill="none"
        stroke-linejoin="miter"/>

  <path d="M332 210 L382 140 L372 90"
        stroke="#0B0F12"
        stroke-width="18"
        fill="none"
        stroke-linejoin="miter"/>

  <!-- MID LEGS -->
  <path d="M170 300 L110 280 L95 320"
        stroke="#0B0F12"
        stroke-width="16"
        fill="none"/>

  <path d="M342 300 L402 280 L417 320"
        stroke="#0B0F12"
        stroke-width="16"
        fill="none"/>

  <!-- LOWER LEGS (slightly thinner for elegance) -->
  <path d="M200 360 L160 480 L180 540"
        stroke="#0B0F12"
        stroke-width="14"
        fill="none"/>

  <path d="M312 360 L352 480 L332 540"
        stroke="#0B0F12"
        stroke-width="14"
        fill="none"/>

  <!-- WORDMARK -->
  <text x="50%" y="610" text-anchor="middle"
        font-family="Orbitron, Arial, sans-serif"
        font-size="64"
        letter-spacing="8"
        fill="#0B0F12">
    ANANSI
  </text>

</svg>