<svg xmlns="http://www.w3.org/2000/svg" width="2601" height="821" viewBox="0 0 2601 821">
  <g transform="translate(0,0) scale(0.907182)">
    <path d="M 407 545 L 408 551 L 485 645 L 496 714 L 482 761 L 433 893 L 437 898 L 462 898 L 465 896 L 518 788 L 551 714 L 541 631 L 535 598 L 467 567 L 454 564 L 455 572 L 503 614 L 524 729 L 506 781 L 491 788 L 490 784 L 502 776 L 518 731 L 498 616 L 450 574 L 448 560 Z" fill="#11131A"/>
<path d="M 216 545 L 176 560 L 174 574 L 126 617 L 106 731 L 124 779 L 135 784 L 134 788 L 118 781 L 100 729 L 121 614 L 169 572 L 170 563 L 89 598 L 79 654 L 71 713 L 155 895 L 159 898 L 186 898 L 189 893 L 135 744 L 128 719 L 128 708 L 139 645 L 217 548 Z" fill="#11131A"/>
<path d="M 457 530 L 457 532 L 542 540 L 532 522 L 464 522 Z" fill="#11131A"/>
<path d="M 81 539 L 93 540 L 167 531 L 159 522 L 92 522 Z" fill="#11131A"/>
<path d="M 612 400 L 598 400 L 524 481 L 403 525 L 405 527 L 450 531 L 462 517 L 535 517 L 548 539 L 558 540 L 561 537 L 615 406 Z" fill="#11131A"/>
<path d="M 6 403 L 27 458 L 62 539 L 75 540 L 89 517 L 162 517 L 174 531 L 219 526 L 185 511 L 100 480 L 26 400 L 9 400 Z" fill="#11131A"/>
<path d="M 213 393 L 272 531 L 225 725 L 247 780 L 299 895 L 304 898 L 320 898 L 324 895 L 397 726 L 352 529 L 410 393 L 315 461 Z" fill="#11131A"/>
<path d="M 441 259 L 435 262 L 386 310 L 382 353 L 314 423 L 242 352 L 238 310 L 185 259 L 206 371 L 314 446 L 418 371 Z" fill="#11131A"/>
<path d="M 312 164 L 271 271 L 262 353 L 313 407 L 362 354 L 353 269 Z" fill="#11131A"/>
<path d="M 477 124 L 497 200 L 511 278 L 466 345 L 425 413 L 382 506 L 382 511 L 402 497 L 467 440 L 469 368 L 526 293 L 485 127 Z" fill="#11131A"/>
<path d="M 147 124 L 138 129 L 99 293 L 156 369 L 157 439 L 242 511 L 243 507 L 229 473 L 196 406 L 158 343 L 114 278 L 125 211 L 148 127 Z" fill="#11131A"/>
<path d="M 415 6 L 413 8 L 414 13 L 452 69 L 474 117 L 490 124 L 532 293 L 474 371 L 473 434 L 511 396 L 533 370 L 575 307 L 575 302 L 553 222 L 509 86 L 473 47 L 431 7 Z" fill="#11131A"/>
<path d="M 213 6 L 199 6 L 117 87 L 69 230 L 49 305 L 71 340 L 99 378 L 151 433 L 151 371 L 94 296 L 93 291 L 134 125 L 151 117 L 171 73 L 192 40 L 215 8 Z" fill="#11131A"/>
  </g>
  <g transform="translate(684.27,0)">
    <g fill="#11131A" stroke="none">
  <path d="M 166 499 L 209 500 L 213 497 L 297 365 L 301 362 L 388 497 L 393 500 L 435 500 L 337 351 L 321 324 L 316 319 L 312 318 L 288 318 L 281 322 L 245 380 Z"/>
  <path d="M 505 320 L 504 498 L 506 500 L 540 500 L 542 496 L 542 365 L 702 499 L 741 500 L 743 498 L 743 321 L 741 319 L 710 318 L 706 322 L 705 454 L 547 321 L 540 318 L 509 318 Z"/>
  <path d="M 815 499 L 857 500 L 862 497 L 941 372 L 949 362 L 958 374 L 1036 496 L 1041 500 L 1083 500 L 1076 487 L 983 347 L 969 323 L 961 318 L 936 318 L 929 323 L 873 412 Z"/>
  <path d="M 1153 321 L 1152 431 L 1153 498 L 1155 500 L 1188 500 L 1190 497 L 1191 365 L 1349 498 L 1353 500 L 1391 499 L 1392 322 L 1390 319 L 1359 318 L 1355 321 L 1354 454 L 1192 319 L 1157 318 Z"/>
  <path d="M 1468 337 L 1461 353 L 1460 389 L 1464 406 L 1466 410 L 1475 419 L 1491 425 L 1643 425 L 1647 427 L 1652 433 L 1652 458 L 1651 461 L 1644 467 L 1494 467 L 1487 470 L 1464 497 L 1465 500 L 1652 500 L 1662 497 L 1671 492 L 1682 480 L 1688 464 L 1688 421 L 1684 409 L 1674 398 L 1656 392 L 1505 392 L 1501 390 L 1497 384 L 1497 360 L 1503 352 L 1509 350 L 1655 351 L 1661 349 L 1668 342 L 1685 321 L 1683 318 L 1503 318 L 1484 323 L 1474 330 Z"/>
  <path d="M 1760 318 L 1756 322 L 1756 497 L 1758 500 L 1791 500 L 1794 496 L 1794 323 L 1793 320 L 1790 318 Z"/>
</g>
  </g>
</svg>