<svg xmlns="http://www.w3.org/2000/svg" width="2601" height="821" viewBox="0 0 2601 821">
  <g transform="translate(0,0) scale(0.907182)">
    <path d="M 218 547 L 178 561 L 175 576 L 127 618 L 107 732 L 124 779 L 135 783 L 135 789 L 119 782 L 101 729 L 122 615 L 170 573 L 171 564 L 120 585 L 90 600 L 72 709 L 74 719 L 157 897 L 161 899 L 186 899 L 189 897 L 189 892 L 143 766 L 128 714 L 140 646 L 199 574 Z" fill="#11131A"/>
<path d="M 408 546 L 409 552 L 486 646 L 497 715 L 485 757 L 435 892 L 435 896 L 438 899 L 462 899 L 467 895 L 542 740 L 552 714 L 544 646 L 537 604 L 534 598 L 456 564 L 456 573 L 505 616 L 525 729 L 507 783 L 491 789 L 491 784 L 501 780 L 519 732 L 499 618 L 451 575 L 449 561 Z" fill="#11131A"/>
<path d="M 458 532 L 543 541 L 533 523 L 466 523 Z" fill="#11131A"/>
<path d="M 83 541 L 168 532 L 160 523 L 93 523 Z" fill="#11131A"/>
<path d="M 615 403 L 612 401 L 599 401 L 525 482 L 450 508 L 405 527 L 451 532 L 463 518 L 536 518 L 550 541 L 559 541 L 615 410 Z" fill="#11131A"/>
<path d="M 8 403 L 8 410 L 63 540 L 75 541 L 90 518 L 163 518 L 175 532 L 220 527 L 183 511 L 101 481 L 27 401 L 10 401 Z" fill="#11131A"/>
<path d="M 215 395 L 273 532 L 228 716 L 227 730 L 300 896 L 305 899 L 320 899 L 325 896 L 398 726 L 353 530 L 411 395 L 316 462 L 242 411 Z" fill="#11131A"/>
<path d="M 478 126 L 498 200 L 512 280 L 473 337 L 429 409 L 402 463 L 382 510 L 383 512 L 404 497 L 468 440 L 470 369 L 527 294 L 487 129 Z" fill="#11131A"/>
<path d="M 146 126 L 139 130 L 100 294 L 157 370 L 159 441 L 243 512 L 244 509 L 233 481 L 198 409 L 157 341 L 115 279 L 129 198 L 149 127 Z" fill="#11131A"/>
<path d="M 416 7 L 414 12 L 452 68 L 476 119 L 488 123 L 492 127 L 533 293 L 525 307 L 476 370 L 474 398 L 475 434 L 510 399 L 533 372 L 576 308 L 559 240 L 510 87 L 465 39 L 430 7 Z" fill="#11131A"/>
<path d="M 214 7 L 199 8 L 118 88 L 72 225 L 51 302 L 51 308 L 90 366 L 122 404 L 152 434 L 151 371 L 94 296 L 134 128 L 137 124 L 151 119 L 169 79 L 195 38 L 216 9 Z" fill="#11131A"/>
<path d="M 186 260 L 207 372 L 314 447 L 419 372 L 441 260 L 387 311 L 383 354 L 314 425 L 243 353 L 239 311 Z" fill="#E11B22"/>
<path d="M 313 166 L 272 273 L 263 354 L 315 407 L 363 355 L 353 267 Z" fill="#E11B22"/>
  </g>
  <g transform="translate(684.27,0)">
    <g fill="#11131A" stroke="none">
  <path d="M 166 499 L 209 500 L 213 497 L 297 365 L 301 362 L 388 497 L 393 500 L 435 500 L 337 351 L 321 324 L 316 319 L 312 318 L 288 318 L 281 322 L 245 380 Z"/>
  <path d="M 505 320 L 504 498 L 506 500 L 540 500 L 542 496 L 542 365 L 702 499 L 741 500 L 743 498 L 743 321 L 741 319 L 710 318 L 706 322 L 705 454 L 547 321 L 540 318 L 509 318 Z"/>
  <path d="M 815 499 L 857 500 L 862 497 L 941 372 L 949 362 L 958 374 L 1036 496 L 1041 500 L 1083 500 L 1076 487 L 983 347 L 969 323 L 961 318 L 936 318 L 929 323 L 873 412 Z"/>
  <path d="M 1153 321 L 1152 431 L 1153 498 L 1155 500 L 1188 500 L 1190 497 L 1191 365 L 1349 498 L 1353 500 L 1391 499 L 1392 322 L 1390 319 L 1359 318 L 1355 321 L 1354 454 L 1192 319 L 1157 318 Z"/>
  <path d="M 1468 337 L 1461 353 L 1460 389 L 1464 406 L 1466 410 L 1475 419 L 1491 425 L 1643 425 L 1647 427 L 1652 433 L 1652 458 L 1651 461 L 1644 467 L 1494 467 L 1487 470 L 1464 497 L 1465 500 L 1652 500 L 1662 497 L 1671 492 L 1682 480 L 1688 464 L 1688 421 L 1684 409 L 1674 398 L 1656 392 L 1505 392 L 1501 390 L 1497 384 L 1497 360 L 1503 352 L 1509 350 L 1655 351 L 1661 349 L 1668 342 L 1685 321 L 1683 318 L 1503 318 L 1484 323 L 1474 330 Z"/>
  <path d="M 1760 318 L 1756 322 L 1756 497 L 1758 500 L 1791 500 L 1794 496 L 1794 323 L 1793 320 L 1790 318 Z"/>
</g>
  </g>
</svg>