<?xml version="1.0" encoding="UTF-8" standalone="no"?>
<svg xmlns="http://www.w3.org/2000/svg" width="1628" height="182" viewBox="166 318 1628 182">
<g fill="#FFFFFF" stroke="none"><path d="M 166 499 L 209 500 L 213 497 L 297 365 L 301 362 L 388 497 L 393 500 L 435 500 L 337 351 L 321 324 L 316 319 L 312 318 L 288 318 L 281 322 L 245 380 Z"/>
<path d="M 505 320 L 504 498 L 506 500 L 540 500 L 542 496 L 542 365 L 702 499 L 741 500 L 743 498 L 743 321 L 741 319 L 710 318 L 706 322 L 705 454 L 547 321 L 540 318 L 509 318 Z"/>
<path d="M 815 499 L 857 500 L 862 497 L 941 372 L 949 362 L 958 374 L 1036 496 L 1041 500 L 1083 500 L 1076 487 L 983 347 L 969 323 L 961 318 L 936 318 L 929 323 L 873 412 Z"/>
<path d="M 1153 321 L 1152 431 L 1153 498 L 1155 500 L 1188 500 L 1190 497 L 1191 365 L 1349 498 L 1353 500 L 1391 499 L 1392 322 L 1390 319 L 1359 318 L 1355 321 L 1354 454 L 1192 319 L 1157 318 Z"/>
<path d="M 1468 337 L 1461 353 L 1460 389 L 1464 406 L 1466 410 L 1475 419 L 1491 425 L 1643 425 L 1647 427 L 1652 433 L 1652 458 L 1651 461 L 1644 467 L 1494 467 L 1487 470 L 1464 497 L 1465 500 L 1652 500 L 1662 497 L 1671 492 L 1682 480 L 1688 464 L 1688 421 L 1684 409 L 1674 398 L 1656 392 L 1505 392 L 1501 390 L 1497 384 L 1497 360 L 1503 352 L 1509 350 L 1655 351 L 1661 349 L 1668 342 L 1685 321 L 1683 318 L 1503 318 L 1484 323 L 1474 330 Z"/>
<path d="M 1760 318 L 1756 322 L 1756 497 L 1758 500 L 1791 500 L 1794 496 L 1794 323 L 1793 320 L 1790 318 Z"/></g>
</svg>
